<svg data-v-423bf9ae="" xmlns="http://www.w3.org/2000/svg" viewBox="0 0 416 90" class="iconLeft"><!----><!----><!----><g data-v-423bf9ae="" id="791637de-45b7-4590-aedf-e1e9da9247b5" fill="black" transform="matrix(4.878049083061471,0,0,4.878049083061471,62.86892272300642,2.3170723724100313)"><path d="M3.82 12.33L3.82 12.33L3.82 12.33Q3.25 12.33 2.68 12.22L2.68 12.22L2.68 12.22Q2.11 12.11 1.67 11.89L1.67 11.89L1.67 11.89Q1.22 11.68 0.94 11.36L0.94 11.36L0.94 11.36Q0.66 11.05 0.66 10.65L0.66 10.65L0.66 9.02L1.05 9.02L1.05 9.02Q1.27 10.47 1.95 11.09L1.95 11.09L1.95 11.09Q2.63 11.70 3.81 11.70L3.81 11.70L3.81 11.70Q4.61 11.70 5.09 11.36L5.09 11.36L5.09 11.36Q5.57 11.02 5.57 10.35L5.57 10.35L5.57 10.35Q5.57 9.74 5.19 9.35L5.19 9.35L5.19 9.35Q4.80 8.95 4.13 8.54L4.13 8.54L2.41 7.50L2.41 7.50Q1.46 6.94 1.06 6.36L1.06 6.36L1.06 6.36Q0.67 5.77 0.67 5.00L0.67 5.00L0.67 5.00Q0.67 3.89 1.52 3.25L1.52 3.25L1.52 3.25Q2.37 2.60 3.81 2.60L3.81 2.60L3.81 2.60Q4.38 2.60 4.95 2.72L4.95 2.72L4.95 2.72Q5.52 2.83 5.96 3.04L5.96 3.04L5.96 3.04Q6.41 3.26 6.69 3.58L6.69 3.58L6.69 3.58Q6.97 3.89 6.97 4.28L6.97 4.28L6.97 5.92L6.58 5.92L6.58 5.92Q6.34 4.47 5.68 3.85L5.68 3.85L5.68 3.85Q5.03 3.23 3.96 3.23L3.96 3.23L3.96 3.23Q3.21 3.23 2.77 3.60L2.77 3.60L2.77 3.60Q2.32 3.96 2.32 4.59L2.32 4.59L2.32 4.59Q2.32 4.89 2.43 5.12L2.43 5.12L2.43 5.12Q2.53 5.35 2.72 5.54L2.72 5.54L2.72 5.54Q2.91 5.74 3.18 5.92L3.18 5.92L3.18 5.92Q3.44 6.10 3.78 6.30L3.78 6.30L5.50 7.32L5.50 7.32Q6.45 7.88 6.90 8.42L6.90 8.42L6.90 8.42Q7.34 8.96 7.34 9.73L7.34 9.73L7.34 9.73Q7.34 10.93 6.43 11.63L6.43 11.63L6.43 11.63Q5.52 12.33 3.82 12.33ZM10.81 3.42L10.81 5.52L12.35 5.52L12.35 6.15L10.81 6.15L10.81 10.28L10.81 10.28Q10.81 11.06 11.00 11.33L11.00 11.33L11.00 11.33Q11.19 11.61 11.54 11.61L11.54 11.61L11.54 11.61Q11.76 11.61 11.96 11.55L11.96 11.55L11.96 11.55Q12.17 11.49 12.32 11.42L12.32 11.42L12.32 11.42Q12.49 11.34 12.64 11.23L12.64 11.23L12.84 11.62L12.84 11.62Q12.66 11.79 12.40 11.93L12.40 11.93L12.40 11.93Q12.18 12.04 11.84 12.14L11.84 12.14L11.84 12.14Q11.49 12.24 11.02 12.24L11.02 12.24L11.02 12.24Q10.07 12.24 9.53 11.72L9.53 11.72L9.53 11.72Q8.99 11.20 8.99 10.19L8.99 10.19L8.99 6.15L8.15 6.15L8.15 5.52L8.99 5.52L8.99 4.26L9.69 3.42L10.81 3.42ZM13.79 9.66L13.79 7.34L13.79 7.34Q13.79 6.71 13.62 6.32L13.62 6.32L13.62 6.32Q13.44 5.94 12.81 5.94L12.81 5.94L12.67 5.94L12.67 5.52L14.35 5.52L14.35 5.52Q14.71 5.52 14.96 5.61L14.96 5.61L14.96 5.61Q15.20 5.70 15.35 5.91L15.35 5.91L15.35 5.91Q15.50 6.12 15.55 6.47L15.55 6.47L15.55 6.47Q15.61 6.82 15.61 7.34L15.61 7.34L15.61 9.67L15.61 9.67Q15.61 10.75 15.92 11.18L15.92 11.18L15.92 11.18Q16.23 11.61 16.80 11.61L16.80 11.61L16.80 11.61Q17.12 11.61 17.35 11.47L17.35 11.47L17.35 11.47Q17.58 11.33 17.74 11.16L17.74 11.16L17.74 11.16Q17.92 10.96 18.06 10.70L18.06 10.70L18.06 5.52L19.88 5.52L19.88 12.10L18.69 12.10L18.20 11.47L18.13 11.47L18.13 11.47Q17.92 11.69 17.67 11.86L17.67 11.86L17.67 11.86Q17.44 12.01 17.12 12.12L17.12 12.12L17.12 12.12Q16.80 12.24 16.38 12.24L16.38 12.24L16.38 12.24Q15.06 12.24 14.43 11.63L14.43 11.63L14.43 11.63Q13.79 11.02 13.79 9.66L13.79 9.66ZM25.72 10.70L25.72 6.43L25.72 6.43Q25.56 6.31 25.38 6.22L25.38 6.22L25.38 6.22Q25.23 6.15 25.01 6.08L25.01 6.08L25.01 6.08Q24.79 6.01 24.53 6.01L24.53 6.01L24.53 6.01Q24.14 6.01 23.87 6.22L23.87 6.22L23.87 6.22Q23.60 6.43 23.44 6.80L23.44 6.80L23.44 6.80Q23.27 7.18 23.20 7.69L23.20 7.69L23.20 7.69Q23.13 8.20 23.13 8.81L23.13 8.81L23.13 8.81Q23.13 9.41 23.20 9.92L23.20 9.92L23.20 9.92Q23.27 10.43 23.42 10.81L23.42 10.81L23.42 10.81Q23.58 11.19 23.84 11.40L23.84 11.40L23.84 11.40Q24.09 11.61 24.46 11.61L24.46 11.61L24.46 11.61Q24.78 11.61 25.01 11.47L25.01 11.47L25.01 11.47Q25.24 11.33 25.40 11.16L25.40 11.16L25.40 11.16Q25.58 10.96 25.72 10.70L25.72 10.70ZM25.72 5.80L25.72 4.68L25.72 4.68Q25.72 4.05 25.54 3.66L25.54 3.66L25.54 3.66Q25.37 3.28 24.74 3.28L24.74 3.28L24.60 3.28L24.60 2.86L26.28 2.86L26.28 2.86Q26.64 2.86 26.89 2.95L26.89 2.95L26.89 2.95Q27.13 3.04 27.28 3.25L27.28 3.25L27.28 3.25Q27.43 3.46 27.48 3.81L27.48 3.81L27.48 3.81Q27.54 4.16 27.54 4.68L27.54 4.68L27.54 12.10L26.35 12.10L25.86 11.47L25.79 11.47L25.79 11.47Q25.63 11.69 25.40 11.86L25.40 11.86L25.40 11.86Q25.20 12.01 24.90 12.12L24.90 12.12L24.90 12.12Q24.60 12.24 24.18 12.24L24.18 12.24L24.18 12.24Q23.44 12.24 22.89 11.97L22.89 11.97L22.89 11.97Q22.34 11.70 21.97 11.24L21.97 11.24L21.97 11.24Q21.60 10.78 21.42 10.15L21.42 10.15L21.42 10.15Q21.24 9.52 21.24 8.81L21.24 8.81L21.24 8.81Q21.24 8.09 21.42 7.46L21.42 7.46L21.42 7.46Q21.60 6.83 21.98 6.37L21.98 6.37L21.98 6.37Q22.36 5.91 22.92 5.64L22.92 5.64L22.92 5.64Q23.49 5.38 24.25 5.38L24.25 5.38L24.25 5.38Q24.58 5.38 24.86 5.45L24.86 5.45L24.86 5.45Q25.13 5.52 25.33 5.59L25.33 5.59L25.33 5.59Q25.55 5.68 25.72 5.80L25.72 5.80ZM35.27 5.52L32.44 13.01L32.44 13.01Q32.23 13.58 31.99 13.94L31.99 13.94L31.99 13.94Q31.75 14.31 31.49 14.52L31.49 14.52L31.49 14.52Q31.22 14.73 30.91 14.81L30.91 14.81L30.91 14.81Q30.59 14.90 30.23 14.90L30.23 14.90L29.67 14.90L29.67 14.41L29.67 14.41Q30.03 14.41 30.33 14.34L30.33 14.34L30.33 14.34Q30.63 14.28 30.88 14.13L30.88 14.13L30.88 14.13Q31.14 13.97 31.33 13.71L31.33 13.71L31.33 13.71Q31.53 13.45 31.68 13.05L31.68 13.05L31.98 12.29L29.46 6.78L29.46 6.78Q28.99 5.75 28.15 5.66L28.15 5.66L28.15 5.38L29.39 5.38L29.39 5.38Q30.02 5.38 30.49 5.68L30.49 5.68L30.49 5.68Q30.97 5.98 31.21 6.50L31.21 6.50L32.82 10.02L34.52 5.52L35.27 5.52ZM35.48 2.86L41.34 2.86L41.34 2.86Q41.71 2.86 41.94 2.95L41.94 2.95L41.94 2.95Q42.17 3.05 42.30 3.21L42.30 3.21L42.30 3.21Q42.43 3.36 42.48 3.56L42.48 3.56L42.48 3.56Q42.53 3.77 42.53 3.98L42.53 3.98L42.53 5.17L42.11 5.17L42.11 5.17Q42.11 4.26 41.66 3.87L41.66 3.87L41.66 3.87Q41.20 3.49 40.36 3.49L40.36 3.49L38.42 3.49L38.42 7.06L41.50 7.06L41.50 7.69L38.42 7.69L38.42 12.10L36.60 12.10L36.60 4.68L36.60 4.68Q36.60 4.05 36.42 3.66L36.42 3.66L36.42 3.66Q36.25 3.28 35.62 3.28L35.62 3.28L35.48 3.28L35.48 2.86ZM43.79 9.66L43.79 7.34L43.79 7.34Q43.79 6.71 43.62 6.32L43.62 6.32L43.62 6.32Q43.44 5.94 42.81 5.94L42.81 5.94L42.67 5.94L42.67 5.52L44.35 5.52L44.35 5.52Q44.72 5.52 44.96 5.61L44.96 5.61L44.96 5.61Q45.21 5.70 45.35 5.91L45.35 5.91L45.35 5.91Q45.50 6.12 45.56 6.47L45.56 6.47L45.56 6.47Q45.61 6.82 45.61 7.34L45.61 7.34L45.61 9.67L45.61 9.67Q45.61 10.75 45.92 11.18L45.92 11.18L45.92 11.18Q46.23 11.61 46.80 11.61L46.80 11.61L46.80 11.61Q47.12 11.61 47.35 11.47L47.35 11.47L47.35 11.47Q47.59 11.33 47.74 11.16L47.74 11.16L47.74 11.16Q47.92 10.96 48.06 10.70L48.06 10.70L48.06 5.52L49.88 5.52L49.88 12.10L48.69 12.10L48.20 11.47L48.13 11.47L48.13 11.47Q47.92 11.69 47.67 11.86L47.67 11.86L47.67 11.86Q47.45 12.01 47.12 12.12L47.12 12.12L47.12 12.12Q46.80 12.24 46.38 12.24L46.38 12.24L46.38 12.24Q45.07 12.24 44.43 11.63L44.43 11.63L44.43 11.63Q43.79 11.02 43.79 9.66L43.79 9.66ZM54.85 6.08L54.85 6.08L54.85 6.08Q54.40 6.08 54.07 6.20L54.07 6.20L54.07 6.20Q53.75 6.33 53.56 6.51L53.56 6.51L53.56 6.51Q53.58 6.59 53.61 6.71L53.61 6.71L53.61 6.71Q53.63 6.80 53.65 6.94L53.65 6.94L53.65 6.94Q53.66 7.08 53.66 7.25L53.66 7.25L53.66 12.10L51.84 12.10L51.84 7.34L51.84 7.34Q51.84 7.03 51.81 6.77L51.81 6.77L51.81 6.77Q51.77 6.51 51.67 6.32L51.67 6.32L51.67 6.32Q51.58 6.13 51.38 6.03L51.38 6.03L51.38 6.03Q51.18 5.94 50.88 5.94L50.88 5.94L50.74 5.94L50.74 5.52L52.12 5.52L52.12 5.52Q52.60 5.52 52.87 5.63L52.87 5.63L52.87 5.63Q53.14 5.75 53.30 6.03L53.30 6.03L53.30 6.03Q53.42 5.92 53.60 5.80L53.60 5.80L53.60 5.80Q53.77 5.68 54.02 5.59L54.02 5.59L54.02 5.59Q54.26 5.50 54.59 5.44L54.59 5.44L54.59 5.44Q54.91 5.38 55.34 5.38L55.34 5.38L55.34 5.38Q56.66 5.38 57.33 5.99L57.33 5.99L57.33 5.99Q58.00 6.59 58.00 7.95L58.00 7.95L58.00 12.10L56.18 12.10L56.18 7.94L56.18 7.94Q56.18 6.92 55.80 6.50L55.80 6.50L55.80 6.50Q55.43 6.08 54.85 6.08ZM63.77 10.70L63.77 6.43L63.77 6.43Q63.62 6.31 63.43 6.22L63.43 6.22L63.43 6.22Q63.28 6.15 63.06 6.08L63.06 6.08L63.06 6.08Q62.85 6.01 62.58 6.01L62.58 6.01L62.58 6.01Q62.19 6.01 61.92 6.22L61.92 6.22L61.92 6.22Q61.66 6.43 61.49 6.80L61.49 6.80L61.49 6.80Q61.32 7.18 61.25 7.69L61.25 7.69L61.25 7.69Q61.18 8.20 61.18 8.81L61.18 8.81L61.18 8.81Q61.18 9.41 61.25 9.92L61.25 9.92L61.25 9.92Q61.32 10.43 61.47 10.81L61.47 10.81L61.47 10.81Q61.63 11.19 61.89 11.40L61.89 11.40L61.89 11.40Q62.15 11.61 62.51 11.61L62.51 11.61L62.51 11.61Q62.83 11.61 63.06 11.47L63.06 11.47L63.06 11.47Q63.29 11.33 63.45 11.16L63.45 11.16L63.45 11.16Q63.63 10.96 63.77 10.70L63.77 10.70ZM63.77 5.80L63.77 4.68L63.77 4.68Q63.77 4.05 63.59 3.66L63.59 3.66L63.59 3.66Q63.42 3.28 62.79 3.28L62.79 3.28L62.65 3.28L62.65 2.86L64.33 2.86L64.33 2.86Q64.69 2.86 64.94 2.95L64.94 2.95L64.94 2.95Q65.18 3.04 65.33 3.25L65.33 3.25L65.33 3.25Q65.48 3.46 65.53 3.81L65.53 3.81L65.53 3.81Q65.59 4.16 65.59 4.68L65.59 4.68L65.59 12.10L64.40 12.10L63.91 11.47L63.84 11.47L63.84 11.47Q63.69 11.69 63.45 11.86L63.45 11.86L63.45 11.86Q63.25 12.01 62.95 12.12L62.95 12.12L62.95 12.12Q62.65 12.24 62.23 12.24L62.23 12.24L62.23 12.24Q61.49 12.24 60.94 11.97L60.94 11.97L60.94 11.97Q60.40 11.70 60.02 11.24L60.02 11.24L60.02 11.24Q59.65 10.78 59.47 10.15L59.47 10.15L59.47 10.15Q59.29 9.52 59.29 8.81L59.29 8.81L59.29 8.81Q59.29 8.09 59.47 7.46L59.47 7.46L59.47 7.46Q59.65 6.83 60.03 6.37L60.03 6.37L60.03 6.37Q60.41 5.91 60.98 5.64L60.98 5.64L60.98 5.64Q61.54 5.38 62.30 5.38L62.30 5.38L62.30 5.38Q62.64 5.38 62.91 5.45L62.91 5.45L62.91 5.45Q63.18 5.52 63.38 5.59L63.38 5.59L63.38 5.59Q63.60 5.68 63.77 5.80L63.77 5.80ZM70.77 5.38L70.77 5.38L70.77 5.38Q71.39 5.38 71.76 5.66L71.76 5.66L71.76 5.66Q71.89 5.74 71.97 5.85L71.97 5.85L71.97 5.85Q72.06 5.96 72.12 6.06L72.12 6.06L72.12 6.06Q72.18 6.16 72.21 6.22L72.21 6.22L72.21 6.22Q72.24 6.29 72.24 6.29L72.24 6.29L71.53 6.83L71.53 6.83Q71.43 6.69 71.27 6.57L71.27 6.57L71.27 6.57Q71.15 6.45 70.97 6.37L70.97 6.37L70.97 6.37Q70.80 6.29 70.56 6.29L70.56 6.29L70.56 6.29Q70.11 6.29 69.80 6.41L69.80 6.41L69.80 6.41Q69.50 6.54 69.31 6.72L69.31 6.72L69.31 6.72Q69.33 6.82 69.34 6.93L69.34 6.93L69.34 6.93Q69.36 7.03 69.36 7.15L69.36 7.15L69.36 7.15Q69.37 7.27 69.37 7.39L69.37 7.39L69.37 12.10L67.55 12.10L67.55 7.34L67.55 7.34Q67.55 7.03 67.51 6.77L67.51 6.77L67.51 6.77Q67.48 6.51 67.38 6.32L67.38 6.32L67.38 6.32Q67.28 6.13 67.09 6.03L67.09 6.03L67.09 6.03Q66.89 5.94 66.58 5.94L66.58 5.94L66.44 5.94L66.44 5.52L67.83 5.52L67.83 5.52Q68.31 5.52 68.58 5.63L68.58 5.63L68.58 5.63Q68.85 5.75 69.01 6.03L69.01 6.03L69.01 6.03Q69.26 5.81 69.70 5.59L69.70 5.59L69.70 5.59Q70.14 5.38 70.77 5.38Z"></path></g><!----><g data-v-423bf9ae="" id="8f18dbfb-7e29-4c6f-8066-a29bc862c673" transform="matrix(2.8125,0,0,2.8125,-21.194407999515533,0)" stroke="none" fill="black"><path d="M18.396 26.495L7.807 15.905 18.432 5.28l.707.707-9.918 9.918 9.882 9.883z"></path><path d="M23.194 1v4.194H19V1h4.194m1-1H18v6.194h6.194V0zM23.194 26.806V31H19v-4.194h4.194m1-1H18V32h6.194v-6.194z"></path></g><!----></svg>